<?xml version="1.0" standalone="no"?>
<!DOCTYPE svg PUBLIC "-//W3C//DTD SVG 20010904//EN"
 "http://www.w3.org/TR/2001/REC-SVG-20010904/DTD/svg10.dtd">
<svg version="1.0" xmlns="http://www.w3.org/2000/svg"
 width="260.000000pt" height="260.000000pt" viewBox="0 0 260.000000 260.000000"
 preserveAspectRatio="xMidYMid meet">
<metadata>
Created by potrace 1.11, written by Peter Selinger 2001-2013
</metadata>
<g transform="translate(0.000000,260.000000) scale(0.100000,-0.100000)"
fill="#000000" stroke="none">
<path d="M1236 2546 c-36 -37 -80 -125 -606 -1201 -54 -110 -175 -357 -270
-550 -375 -763 -362 -733 -341 -765 8 -12 39 -15 170 -15 155 0 160 1 185 24
14 14 47 68 72 120 56 115 168 347 234 486 26 55 77 161 113 235 35 74 88 185
117 245 29 61 79 166 112 235 34 69 87 181 120 250 90 189 140 290 145 290 2
0 30 -55 62 -122 32 -68 84 -177 116 -243 32 -66 79 -165 105 -220 26 -55 80
-167 120 -250 40 -82 96 -199 125 -260 29 -60 81 -168 115 -240 34 -72 80
-168 102 -215 73 -155 125 -258 147 -288 33 -47 62 -54 230 -50 165 3 176 7
167 60 -3 15 -95 208 -205 430 -938 1899 -998 2018 -1029 2051 -35 37 -67 35
-106 -7z"/>
</g>
</svg>
